<svg xmlns="http://www.w3.org/2000/svg" xmlns:xlink="http://www.w3.org/1999/xlink" preserveAspectRatio="xMidYMid meet" width="448" height="448" viewBox="0 0 448 448" style="width:100%;height:100%"><defs><clipPath id="_R_G_L_0_C_0"><path id="_R_G_L_0_C_0_P_0" fill-rule="nonzero" d="M290.75 103.25 C167.59,103.25 67.75,203.09 67.75,326.25 C67.75,449.41 167.59,549.25 290.75,549.25 C413.91,549.25 513.75,449.41 513.75,326.25 C513.75,203.09 413.91,103.25 290.75,103.25z "/></clipPath><animateTransform repeatCount="indefinite" dur="3.003003s" begin="0s" xlink:href="#_R_G_L_0_G_G_0_L_0_G_L_2_G" fill="freeze" attributeName="transform" from="1 1" to="1 1" type="scale" additive="sum" keyTimes="0;0.3888889;0.4222222;0.4666667;1" values="1 1;1 1;1 0.2;1 1;1 1" keySplines="0.333 0 0.667 1;0.333 0 0.667 1;0.333 0 0.667 1;0 0 0 0" calcMode="spline"/><animateTransform repeatCount="indefinite" dur="3.003003s" begin="0s" xlink:href="#_R_G_L_0_G_G_0_L_0_G_L_2_G" fill="freeze" attributeName="transform" from="-9.356 -9.356" to="-9.356 -9.356" type="translate" additive="sum" keyTimes="0;1" values="-9.356 -9.356;-9.356 -9.356" keySplines="0 0 1 1" calcMode="spline"/><animateTransform repeatCount="indefinite" dur="3.003003s" begin="0s" xlink:href="#_R_G_L_0_G_G_0_L_0_G_L_1_G" fill="freeze" attributeName="transform" from="1 1" to="1 1" type="scale" additive="sum" keyTimes="0;0.3888889;0.4222222;0.4666667;1" values="1 1;1 1;1 0.2;1 1;1 1" keySplines="0.333 0 0.667 1;0.333 0 0.667 1;0.333 0 0.667 1;0 0 0 0" calcMode="spline"/><animateTransform repeatCount="indefinite" dur="3.003003s" begin="0s" xlink:href="#_R_G_L_0_G_G_0_L_0_G_L_1_G" fill="freeze" attributeName="transform" from="-9.356 -9.356" to="-9.356 -9.356" type="translate" additive="sum" keyTimes="0;1" values="-9.356 -9.356;-9.356 -9.356" keySplines="0 0 1 1" calcMode="spline"/><animateMotion repeatCount="indefinite" dur="3.003003s" begin="0s" xlink:href="#_R_G_L_0_G_G_0_L_0_G_L_0_G" fill="freeze" keyTimes="0;0.2888889;0.3888889;0.4333333;0.4888889;0.5333333;1" path="M290.14 247.45 C290.14,247.45 290.14,247.45 290.14,247.45 C290.14,247.45 290.14,247.45 290.14,247.45 C290.14,247.45 290.14,250.78 290.14,250.78 C290.14,250.78 290.14,246.2 290.14,246.2 C290.14,246.2 290.14,247.45 290.14,247.45 C290.14,247.45 290.14,247.45 290.14,247.45 " keyPoints="0;0;0;0.36;0.86;1;1" keySplines="0.167 0.167 0.833 0.833;0.167 0.167 0.833 0.833;0.333 0 0.667 1;0.333 0 0.667 1;0.167 0.167 0.667 1;0 0 0 0" calcMode="spline"/><animateTransform repeatCount="indefinite" dur="3.003003s" begin="0s" xlink:href="#_R_G_L_0_G_G_0_L_0_G_L_0_G" fill="freeze" attributeName="transform" from="-76.492 -8.564" to="-76.492 -8.564" type="translate" additive="sum" keyTimes="0;1" values="-76.492 -8.564;-76.492 -8.564" keySplines="0 0 1 1" calcMode="spline"/><animate attributeType="XML" attributeName="opacity" dur="3s" from="0" to="1" xlink:href="#time_group"/></defs><g id="_R_G"><g id="_R_G_L_0_G" transform=" translate(224, 208) translate(-290, -309.5)"><g clip-path="url(#_R_G_L_0_C_0)"><g id="_R_G_L_0_G_G_0_L_0_G"><g id="_R_G_L_0_G_G_0_L_0_G_L_3_G" transform=" translate(290.145, 360.054) translate(-205.514, -207.195)"><path id="_R_G_L_0_G_G_0_L_0_G_L_3_G_D_0_P_0" fill="#aacee3" fill-opacity="1" fill-rule="nonzero" d=" M338.28 409.28 C338.28,409.28 72.92,409.28 72.92,409.28 C71.43,409.28 69.99,408.77 68.83,407.83 C67.68,406.88 66.88,405.57 66.57,404.11 C51.02,328.47 53.45,269.26 68.31,227.21 C79.01,196.83 96.17,175.39 117.7,163.17 C117.7,163.17 293.53,163.17 293.53,163.17 C315.06,175.39 332.23,196.83 342.93,227.21 C357.75,269.24 360.21,328.46 344.63,404.12 C344.32,405.57 343.53,406.89 342.37,407.83 C341.22,408.77 339.77,409.28 338.28,409.28z "/><path id="_R_G_L_0_G_G_0_L_0_G_L_3_G_D_1_P_0" fill="#728ba7" fill-opacity="1" fill-rule="nonzero" d=" M342.93 227.22 C319.91,252.5 267.09,270.18 205.6,270.18 C144.11,270.18 91.29,252.5 68.31,227.22 C79.01,196.83 96.17,175.4 117.7,163.18 C117.7,163.18 293.53,163.18 293.53,163.18 C315.06,175.4 332.23,196.83 342.93,227.22z "/><path id="_R_G_L_0_G_G_0_L_0_G_L_3_G_D_2_P_0" fill="#000000" fill-opacity="1" fill-rule="nonzero" d=" M338.28 414.14 C338.28,414.14 72.93,414.14 72.93,414.14 C70.32,414.13 67.8,413.23 65.78,411.58 C63.76,409.93 62.36,407.64 61.83,405.09 C36.94,284.09 56.92,192.08 115.29,158.94 C116.41,158.31 117.74,158.14 118.98,158.49 C120.22,158.83 121.27,159.65 121.91,160.77 C122.54,161.89 122.7,163.21 122.36,164.45 C122.02,165.69 121.2,166.75 120.08,167.38 C65.55,198.35 47.33,286.48 71.35,403.15 C71.42,403.51 71.62,403.84 71.91,404.08 C72.2,404.32 72.57,404.44 72.94,404.44 C72.94,404.44 338.29,404.44 338.29,404.44 C338.67,404.44 339.03,404.31 339.32,404.07 C339.61,403.84 339.81,403.51 339.89,403.15 C363.89,286.48 345.67,198.34 291.14,167.39 C290.02,166.76 289.2,165.7 288.86,164.46 C288.51,163.22 288.68,161.89 289.31,160.78 C289.95,159.66 291,158.84 292.24,158.5 C293.48,158.15 294.81,158.32 295.93,158.95 C354.29,192.09 374.28,284.1 349.39,405.1 C348.86,407.65 347.46,409.94 345.44,411.59 C343.42,413.24 340.89,414.14 338.28,414.14z "/><path id="_R_G_L_0_G_G_0_L_0_G_L_3_G_D_3_P_0" fill="#8dccca" fill-opacity="1" fill-rule="nonzero" d=" M117.82 262.96 C118.04,264.77 118.85,266.45 120.13,267.75 C121.42,269.04 123.09,269.87 124.9,270.1 C126.71,270.33 128.54,269.95 130.11,269.02 C131.67,268.09 132.89,266.66 133.55,264.96 C140.66,246.55 153.22,222.44 172.66,211.52 C172.66,211.52 140.26,198.09 140.26,198.09 C118.26,221.65 115.51,245.59 117.82,262.96z "/><path id="_R_G_L_0_G_G_0_L_0_G_L_3_G_D_4_P_0" fill="#8dccca" fill-opacity="1" fill-rule="nonzero" d=" M270.75 198.09 C270.75,198.09 238.34,211.52 238.34,211.52 C257.78,222.44 270.34,246.55 277.46,264.96 C278.12,266.66 279.33,268.09 280.89,269.02 C282.46,269.95 284.29,270.33 286.1,270.1 C287.91,269.87 289.59,269.04 290.87,267.75 C292.15,266.45 292.97,264.77 293.18,262.96 C295.5,245.59 292.75,221.65 270.75,198.09z "/><path id="_R_G_L_0_G_G_0_L_0_G_L_3_G_D_5_P_0" fill="#000000" fill-opacity="1" fill-rule="nonzero" d=" M126.06 275.03 C125.52,275.03 124.99,274.99 124.46,274.93 C121.56,274.61 118.85,273.31 116.77,271.26 C114.69,269.21 113.37,266.51 113.02,263.61 C110.7,246.27 112.94,220.25 136.72,194.79 C137.15,194.31 137.67,193.91 138.25,193.62 C138.84,193.34 139.47,193.18 140.12,193.15 C140.77,193.11 141.42,193.21 142.03,193.43 C142.64,193.66 143.2,194 143.67,194.44 C144.15,194.89 144.53,195.42 144.79,196.01 C145.06,196.61 145.2,197.25 145.21,197.9 C145.23,198.55 145.11,199.19 144.86,199.8 C144.62,200.4 144.26,200.95 143.8,201.41 C122.62,224.1 120.59,247.06 122.63,262.33 C122.7,263.1 123.03,263.81 123.58,264.36 C124.12,264.9 124.84,265.24 125.61,265.31 C126.33,265.42 127.07,265.27 127.7,264.89 C128.32,264.51 128.79,263.92 129.02,263.22 C136.42,244.13 149.58,218.93 170.29,207.29 C170.85,206.97 171.46,206.75 172.1,206.67 C172.74,206.58 173.39,206.62 174.01,206.79 C174.64,206.96 175.22,207.25 175.73,207.65 C176.24,208.04 176.66,208.54 176.98,209.1 C177.29,209.66 177.49,210.28 177.57,210.92 C177.64,211.56 177.59,212.21 177.41,212.83 C177.23,213.45 176.92,214.03 176.52,214.53 C176.11,215.03 175.61,215.44 175.04,215.75 C156.83,225.97 144.89,249.1 138.07,266.71 C137.15,269.16 135.51,271.26 133.37,272.75 C131.22,274.24 128.67,275.03 126.06,275.03z "/><path id="_R_G_L_0_G_G_0_L_0_G_L_3_G_D_6_P_0" fill="#000000" fill-opacity="1" fill-rule="nonzero" d=" M284.95 275.03 C282.34,275.03 279.79,274.24 277.64,272.75 C275.49,271.26 273.85,269.16 272.94,266.71 C266.12,249.1 254.19,225.98 235.97,215.75 C235.4,215.44 234.9,215.03 234.49,214.53 C234.08,214.03 233.78,213.45 233.6,212.83 C233.42,212.21 233.37,211.56 233.44,210.92 C233.51,210.28 233.71,209.66 234.03,209.1 C234.34,208.54 234.77,208.04 235.28,207.65 C235.79,207.25 236.37,206.96 236.99,206.79 C237.62,206.62 238.27,206.58 238.91,206.67 C239.55,206.75 240.16,206.97 240.72,207.29 C261.43,218.93 274.59,244.12 281.98,263.22 C282.21,263.92 282.68,264.51 283.31,264.89 C283.93,265.27 284.68,265.42 285.4,265.31 C286.17,265.24 286.88,264.9 287.43,264.36 C287.97,263.81 288.31,263.1 288.38,262.33 C290.41,247.06 288.38,224.1 267.2,201.41 C266.75,200.95 266.38,200.4 266.14,199.8 C265.9,199.19 265.78,198.55 265.79,197.9 C265.81,197.25 265.95,196.61 266.21,196.01 C266.48,195.42 266.86,194.89 267.33,194.44 C267.81,194 268.37,193.66 268.98,193.43 C269.59,193.21 270.24,193.11 270.89,193.15 C271.53,193.18 272.17,193.34 272.75,193.62 C273.34,193.91 273.86,194.31 274.29,194.79 C298.07,220.25 300.3,246.27 297.99,263.61 C297.64,266.51 296.32,269.21 294.24,271.26 C292.16,273.31 289.45,274.61 286.55,274.93 C286.02,274.99 285.49,275.03 284.95,275.03z "/><path id="_R_G_L_0_G_G_0_L_0_G_L_3_G_D_7_P_0" fill="#c6e1e9" fill-opacity="1" fill-rule="nonzero" d=" M321.95 44.8 C285.51,40.35 263.44,54.5 247.57,68.54 C247.57,68.54 242.85,195.4 242.85,195.4 C281.64,237.51 328.08,215.42 340.84,193.2 C347.74,181.18 360.67,169.26 375.03,166.23 C382.12,164.47 389.38,163.47 396.68,163.24 C397.96,163.23 399.21,162.95 400.37,162.43 C401.53,161.91 402.57,161.15 403.42,160.21 C404.27,159.26 404.92,158.15 405.31,156.95 C405.71,155.74 405.86,154.46 405.74,153.2 C399.79,88.26 361.61,49.65 321.95,44.8z "/><path id="_R_G_L_0_G_G_0_L_0_G_L_3_G_D_8_P_0" fill="#c6e1e9" fill-opacity="1" fill-rule="nonzero" d=" M163.43 68.54 C147.57,54.5 125.49,40.35 89.05,44.8 C49.39,49.65 11.22,88.26 5.26,153.2 C5.14,154.46 5.28,155.74 5.68,156.95 C6.08,158.15 6.73,159.26 7.58,160.21 C8.43,161.15 9.47,161.91 10.63,162.43 C11.78,162.95 13.04,163.23 14.31,163.24 C21.61,163.47 28.87,164.47 35.97,166.23 C50.33,169.26 63.26,181.18 70.16,193.2 C82.93,215.42 129.35,237.51 168.16,195.4 C168.16,195.4 163.43,68.54 163.43,68.54z "/><path id="_R_G_L_0_G_G_0_L_0_G_L_3_G_D_9_P_0" fill="#aacee3" fill-opacity="1" fill-rule="nonzero" d=" M318.84 81.06 C311.66,79.98 304.34,80.56 297.42,82.77 C290.51,84.98 284.2,88.74 278.97,93.78 C278.97,93.78 276.44,161.78 276.44,161.78 C297.24,184.35 322.12,172.51 328.96,160.6 C330.9,157.09 333.52,154.01 336.67,151.53 C339.82,149.05 343.43,147.21 347.29,146.14 C351.09,145.2 354.98,144.65 358.9,144.53 C359.58,144.52 360.25,144.37 360.87,144.09 C361.49,143.81 362.05,143.4 362.5,142.9 C362.96,142.39 363.31,141.8 363.52,141.15 C363.73,140.5 363.81,139.82 363.75,139.14 C360.55,104.35 340.09,83.65 318.84,81.06z "/><path id="_R_G_L_0_G_G_0_L_0_G_L_3_G_D_10_P_0" fill="#aacee3" fill-opacity="1" fill-rule="nonzero" d=" M132.04 93.78 C126.81,88.74 120.5,84.98 113.59,82.77 C106.67,80.56 99.34,79.98 92.17,81.05 C70.91,83.64 50.47,104.35 47.26,139.16 C47.19,139.83 47.27,140.52 47.48,141.17 C47.7,141.81 48.04,142.41 48.5,142.91 C48.95,143.42 49.51,143.83 50.13,144.11 C50.75,144.39 51.42,144.54 52.11,144.54 C56.02,144.67 59.91,145.21 63.71,146.16 C67.58,147.23 71.18,149.06 74.33,151.54 C77.48,154.02 80.1,157.11 82.04,160.61 C88.88,172.52 113.76,184.36 134.56,161.79 C134.56,161.79 132.04,93.78 132.04,93.78z "/><path id="_R_G_L_0_G_G_0_L_0_G_L_3_G_D_11_P_0" fill="#000000" fill-opacity="1" fill-rule="nonzero" d=" M291.88 224.09 C277.23,224.09 257.98,218.97 239.28,198.68 C238.41,197.74 237.95,196.48 238,195.2 C238.05,193.91 238.61,192.7 239.56,191.83 C240.5,190.96 241.76,190.5 243.04,190.55 C244.33,190.6 245.54,191.16 246.41,192.11 C265.54,212.87 284.94,215.49 297.85,214.05 C316.52,211.96 331.04,200.52 336.65,190.78 C343.11,179.54 356.77,165.13 374.04,161.48 C381.45,159.66 389.04,158.62 396.67,158.39 C397.27,158.39 397.85,158.26 398.4,158.02 C398.94,157.78 399.43,157.42 399.83,156.98 C400.24,156.53 400.55,156 400.74,155.43 C400.93,154.85 401,154.24 400.94,153.64 C394.88,87.74 356.62,53.91 321.39,49.61 C286.28,45.31 265.23,59.41 250.81,72.17 C250.33,72.59 249.77,72.91 249.17,73.12 C248.57,73.33 247.93,73.41 247.3,73.37 C246.66,73.34 246.04,73.17 245.47,72.89 C244.89,72.61 244.38,72.22 243.96,71.75 C243.54,71.27 243.21,70.71 243.01,70.11 C242.8,69.51 242.71,68.87 242.75,68.24 C242.79,67.6 242.96,66.98 243.24,66.41 C243.52,65.83 243.91,65.32 244.38,64.9 C260.32,50.81 283.6,35.24 322.56,39.98 C361.68,44.75 404.04,81.47 410.6,152.75 C410.78,154.69 410.55,156.64 409.94,158.48 C409.33,160.33 408.34,162.02 407.04,163.47 C405.74,164.91 404.15,166.06 402.38,166.86 C400.6,167.66 398.68,168.07 396.74,168.09 C389.76,168.33 382.83,169.29 376.05,170.97 C361.91,173.95 350.51,186.11 345.07,195.61 C338.04,207.8 321.07,221.21 298.93,223.69 C296.59,223.95 294.23,224.09 291.88,224.09z "/><path id="_R_G_L_0_G_G_0_L_0_G_L_3_G_D_12_P_0" fill="#000000" fill-opacity="1" fill-rule="nonzero" d=" M119.13 224.09 C116.77,224.09 114.41,223.95 112.07,223.69 C89.93,221.21 72.95,207.8 65.96,195.61 C60.5,186.11 49.11,173.95 34.98,170.97 C28.2,169.29 21.26,168.33 14.29,168.09 C12.35,168.07 10.43,167.66 8.66,166.86 C6.88,166.07 5.3,164.91 3.99,163.47 C2.69,162.03 1.7,160.34 1.09,158.5 C0.47,156.65 0.25,154.7 0.43,152.77 C6.98,81.47 49.36,44.75 88.48,39.98 C127.43,35.24 150.72,50.8 166.66,64.9 C167.62,65.75 168.21,66.95 168.29,68.24 C168.36,69.52 167.93,70.78 167.08,71.75 C166.23,72.71 165.03,73.3 163.74,73.38 C162.46,73.45 161.2,73.02 160.23,72.17 C145.82,59.41 124.77,45.34 89.65,49.61 C54.4,53.91 16.14,87.74 10.09,153.64 C10.03,154.24 10.09,154.85 10.29,155.43 C10.48,156 10.79,156.53 11.2,156.97 C11.6,157.42 12.08,157.77 12.63,158.02 C13.17,158.26 13.76,158.39 14.35,158.39 C21.99,158.62 29.57,159.65 36.98,161.48 C54.26,165.13 67.92,179.54 74.38,190.77 C79.97,200.52 94.49,211.96 113.17,214.05 C126.07,215.49 145.5,212.86 164.61,192.11 C165.03,191.59 165.55,191.17 166.14,190.87 C166.73,190.57 167.37,190.39 168.03,190.34 C168.69,190.3 169.35,190.39 169.97,190.61 C170.59,190.83 171.17,191.17 171.65,191.62 C172.14,192.07 172.52,192.61 172.79,193.21 C173.06,193.82 173.2,194.47 173.21,195.13 C173.22,195.79 173.09,196.45 172.83,197.06 C172.58,197.67 172.2,198.22 171.72,198.67 C153.03,218.97 133.78,224.09 119.13,224.09z "/><path id="_R_G_L_0_G_G_0_L_0_G_L_3_G_D_13_P_0" fill="#a6eafc" fill-opacity="1" fill-rule="nonzero" d=" M316.21 311.15 C314.56,311 312.96,310.79 311.52,310.58 C309.76,310.31 308.16,309.42 307.02,308.07 C305.87,306.71 305.26,304.98 305.29,303.21 C305.29,303.21 305.46,300.37 305.46,300.37 C305.53,299.31 305.33,298.26 304.88,297.3 C304.43,296.34 303.74,295.51 302.88,294.89 C302.02,294.27 301.02,293.88 299.96,293.75 C298.91,293.63 297.84,293.77 296.86,294.17 C276.23,302.96 257.23,295.82 253,280.4 C251.19,273 250.6,265.36 251.27,257.77 C252.19,244.75 257.22,232.35 265.63,222.37 C304.01,175.94 318.29,118.3 308.3,89.67 C293.31,46.56 256.98,0.25 211.49,17.85 C207.64,19.34 203.37,19.34 199.53,17.85 C154.03,0.25 117.7,46.56 102.68,89.67 C92.8,118.05 104.97,174.95 142.27,221.17 C148.91,229.35 153.36,239.09 155.2,249.47 C161.52,285.47 177.65,315.09 205.63,334.13 C248.06,363 297.81,347.06 320.34,321.62 C321.12,320.75 321.64,319.68 321.84,318.53 C322.05,317.38 321.93,316.2 321.5,315.11 C321.07,314.03 320.35,313.08 319.42,312.38 C318.48,311.68 317.37,311.26 316.21,311.15z "/><path id="_R_G_L_0_G_G_0_L_0_G_L_3_G_D_14_P_0" fill="#000000" fill-opacity="1" fill-rule="nonzero" d=" M255.42 354.45 C236.66,354.46 218.34,348.77 202.88,338.13 C174.96,319.13 157.31,289.59 150.41,250.3 C148.7,240.74 144.6,231.76 138.49,224.21 C100.12,176.64 87.81,117.64 98.1,88.08 C110.28,53.1 131.72,25.66 155.45,14.7 C162.57,11.29 170.32,9.41 178.21,9.17 C186.1,8.94 193.95,10.35 201.27,13.32 C203.99,14.38 207.01,14.38 209.74,13.32 C217.05,10.35 224.9,8.93 232.79,9.17 C240.68,9.4 248.44,11.28 255.56,14.69 C279.29,25.68 300.72,53.1 312.9,88.07 C323.11,117.37 309.62,176.77 269.38,225.46 C261.59,234.65 256.94,246.08 256.11,258.09 C255.46,265.14 256,272.25 257.68,279.12 C258.38,281.65 259.62,283.99 261.33,285.98 C263.03,287.98 265.15,289.57 267.54,290.65 C275.06,294.28 285.05,293.94 294.96,289.72 C296.68,288.98 298.56,288.7 300.42,288.9 C302.27,289.1 304.05,289.77 305.57,290.86 C307.13,291.95 308.39,293.43 309.22,295.14 C310.05,296.86 310.42,298.76 310.3,300.67 C310.3,300.67 310.13,303.5 310.13,303.5 C310.16,304.07 310.39,304.6 310.77,305.01 C311.15,305.42 311.67,305.69 312.23,305.77 C313.59,305.97 315.1,306.16 316.67,306.31 C318.72,306.51 320.68,307.27 322.33,308.5 C323.97,309.74 325.24,311.42 326,313.33 C326.75,315.25 326.96,317.34 326.59,319.37 C326.23,321.4 325.31,323.28 323.94,324.82 C315.2,334.24 304.59,341.73 292.79,346.83 C281,351.93 268.27,354.53 255.42,354.45z  M179.79 18.87 C172.77,18.91 165.85,20.48 159.52,23.49 C134.33,35.13 116.01,66.14 107.26,91.27 C97.84,118.33 109.77,173.17 146.05,218.11 C153.2,226.95 157.99,237.44 159.98,248.63 C166.41,285.23 182.68,312.63 208.34,330.12 C250.5,358.81 297.08,340.54 316.7,318.4 C316.89,318.2 317.01,317.95 317.06,317.68 C317.11,317.41 317.09,317.13 316.98,316.88 C316.89,316.63 316.72,316.41 316.51,316.25 C316.29,316.09 316.03,315.99 315.76,315.98 C314.02,315.81 312.34,315.6 310.83,315.38 C307.91,314.93 305.25,313.45 303.34,311.2 C301.43,308.95 300.41,306.08 300.45,303.13 C300.45,303.13 300.63,300.08 300.63,300.08 C300.64,299.82 300.59,299.57 300.48,299.35 C300.36,299.12 300.19,298.93 299.98,298.78 C299.81,298.65 299.61,298.57 299.39,298.55 C299.18,298.52 298.96,298.55 298.77,298.64 C293.25,301.26 287.23,302.69 281.12,302.82 C275.01,302.94 268.95,301.77 263.32,299.38 C259.69,297.69 256.47,295.24 253.88,292.18 C251.29,289.13 249.4,285.55 248.33,281.69 C246.35,273.79 245.71,265.62 246.43,257.51 C247.38,243.45 252.8,230.06 261.9,219.29 C299.46,173.86 312.86,117.46 303.74,91.27 C294.99,66.13 276.67,35.14 251.49,23.49 C245.54,20.65 239.07,19.08 232.48,18.89 C225.89,18.7 219.34,19.88 213.23,22.37 C208.26,24.29 202.74,24.29 197.77,22.37 C192.04,20.1 185.95,18.91 179.79,18.87z "/><path id="_R_G_L_0_G_G_0_L_0_G_L_3_G_D_15_P_0" fill="#000000" fill-opacity="1" fill-rule="nonzero" d=" M184.51 248.54 C182.85,248.54 181.33,248.49 180,248.39 C178.72,248.29 177.52,247.69 176.69,246.71 C175.85,245.74 175.43,244.47 175.53,243.19 C175.62,241.9 176.23,240.71 177.2,239.87 C178.18,239.04 179.45,238.62 180.73,238.72 C192.63,239.63 220.45,235.81 226.53,232.43 C227.66,231.83 228.97,231.69 230.2,232.05 C231.43,232.41 232.46,233.24 233.08,234.35 C233.7,235.47 233.85,236.79 233.5,238.02 C233.15,239.24 232.34,240.29 231.23,240.92 C223.89,244.98 198.85,248.54 184.51,248.54z "/><path id="_R_G_L_0_G_G_0_L_0_G_L_3_G_D_16_P_0" fill="#000000" fill-opacity="1" fill-rule="nonzero" d=" M192.35 277.49 C192.35,277.49 191.16,277.49 191.16,277.49 C189.88,277.46 188.66,276.92 187.77,275.99 C186.88,275.06 186.4,273.82 186.42,272.53 C186.45,271.25 186.99,270.02 187.92,269.14 C188.85,268.25 190.1,267.76 191.38,267.79 C203.94,268.16 222.3,262.71 226.92,258.5 C227.39,258.05 227.94,257.71 228.55,257.48 C229.15,257.25 229.8,257.14 230.44,257.17 C231.09,257.19 231.72,257.34 232.3,257.62 C232.89,257.89 233.42,258.27 233.85,258.75 C234.29,259.23 234.62,259.79 234.83,260.39 C235.05,261 235.14,261.65 235.11,262.29 C235.07,262.94 234.9,263.57 234.62,264.15 C234.33,264.73 233.94,265.24 233.45,265.67 C226.72,271.79 206.71,277.49 192.35,277.49z "/><path id="_R_G_L_0_G_G_0_L_0_G_L_3_G_D_17_P_0" fill="#000000" fill-opacity="1" fill-rule="nonzero" d=" M207.79 308.8 C206.5,308.84 205.25,308.37 204.32,307.49 C203.38,306.61 202.83,305.39 202.79,304.1 C202.75,302.82 203.22,301.57 204.1,300.63 C204.99,299.69 206.2,299.14 207.49,299.1 C214.35,298.67 227.07,296.46 235.25,286.43 C235.65,285.94 236.15,285.53 236.71,285.23 C237.27,284.93 237.88,284.74 238.52,284.67 C239.15,284.61 239.79,284.67 240.4,284.86 C241.01,285.04 241.58,285.34 242.08,285.74 C242.57,286.15 242.98,286.64 243.28,287.21 C243.58,287.77 243.77,288.38 243.83,289.02 C243.9,289.65 243.84,290.29 243.65,290.9 C243.47,291.51 243.17,292.08 242.76,292.57 C232.26,305.45 216.54,308.26 208.09,308.79 C207.99,308.8 207.89,308.8 207.79,308.8z "/></g><g id="_R_G_L_0_G_G_0_L_0_G_L_2_G" transform=" translate(234.957, 272.566)"><path id="_R_G_L_0_G_G_0_L_0_G_L_2_G_D_0_P_0" fill="#000000" fill-opacity="1" fill-rule="nonzero" d=" M9.36 18.46 C14.39,18.46 18.46,14.39 18.46,9.36 C18.46,4.33 14.39,0.25 9.36,0.25 C4.33,0.25 0.25,4.33 0.25,9.36 C0.25,14.39 4.33,18.46 9.36,18.46z "/></g><g id="_R_G_L_0_G_G_0_L_0_G_L_1_G" transform=" translate(345.309, 272.566)"><path id="_R_G_L_0_G_G_0_L_0_G_L_1_G_D_0_P_0" fill="#000000" fill-opacity="1" fill-rule="nonzero" d=" M9.36 18.46 C14.39,18.46 18.46,14.39 18.46,9.36 C18.46,4.33 14.39,0.25 9.36,0.25 C4.33,0.25 0.25,4.33 0.25,9.36 C0.25,14.39 4.33,18.46 9.36,18.46z "/></g><g id="_R_G_L_0_G_G_0_L_0_G_L_0_G"><path id="_R_G_L_0_G_G_0_L_0_G_L_0_G_D_0_P_0" fill="#000000" fill-opacity="1" fill-rule="nonzero" d=" M5.2 16.87 C4.21,16.87 3.24,16.57 2.43,16.01 C1.62,15.45 1,14.65 0.65,13.72 C0.3,12.79 0.25,11.78 0.49,10.82 C0.74,9.87 1.27,9.01 2.02,8.36 C11.36,0.25 26.7,2.62 27.35,2.74 C28.6,2.96 29.71,3.67 30.45,4.71 C31.18,5.75 31.48,7.03 31.28,8.29 C31.07,9.54 30.39,10.66 29.36,11.42 C28.34,12.17 27.06,12.49 25.8,12.31 C22.62,11.81 13.26,11.44 8.36,15.69 C7.48,16.45 6.36,16.87 5.2,16.87z "/><path id="_R_G_L_0_G_G_0_L_0_G_L_0_G_D_1_P_0" fill="#000000" fill-opacity="1" fill-rule="nonzero" d=" M147.78 16.87 C146.61,16.87 145.48,16.45 144.6,15.69 C138.74,10.6 127.28,12.28 127.16,12.3 C126.52,12.44 125.86,12.44 125.22,12.31 C124.58,12.18 123.97,11.92 123.43,11.55 C122.89,11.18 122.43,10.7 122.08,10.14 C121.73,9.59 121.5,8.97 121.39,8.32 C121.29,7.68 121.32,7.02 121.48,6.38 C121.64,5.75 121.92,5.15 122.32,4.63 C122.71,4.11 123.21,3.67 123.78,3.35 C124.35,3.02 124.97,2.81 125.62,2.74 C126.27,2.63 141.62,0.25 150.97,8.36 C151.71,9.01 152.25,9.87 152.49,10.83 C152.74,11.79 152.68,12.8 152.34,13.73 C151.99,14.65 151.37,15.45 150.56,16.01 C149.74,16.58 148.78,16.88 147.79,16.88 C147.79,16.88 147.78,16.87 147.78,16.87z "/></g></g></g></g></g><g id="time_group"/></svg>