<svg xmlns="http://www.w3.org/2000/svg" xmlns:xlink="http://www.w3.org/1999/xlink" preserveAspectRatio="xMidYMid meet" width="448" height="448" viewBox="0 0 448 448" style="width:100%;height:100%"><defs><clipPath id="_R_G_L_0_C_0"><path id="_R_G_L_0_C_0_P_0" fill-rule="nonzero" d="M290.75 103.25 C167.59,103.25 67.75,203.09 67.75,326.25 C67.75,449.41 167.59,549.25 290.75,549.25 C413.91,549.25 513.75,449.41 513.75,326.25 C513.75,203.09 413.91,103.25 290.75,103.25z "/></clipPath><animateTransform repeatCount="indefinite" dur="3.003003s" begin="0s" xlink:href="#_R_G_L_0_G_G_0_L_0_G_L_2_G" fill="freeze" attributeName="transform" from="1 1" to="1 1" type="scale" additive="sum" keyTimes="0;0.3888889;0.4222222;0.4666667;1" values="1 1;1 1;1 0.2;1 1;1 1" keySplines="0.333 0 0.667 1;0.333 0 0.667 1;0.333 0 0.667 1;0 0 0 0" calcMode="spline"/><animateTransform repeatCount="indefinite" dur="3.003003s" begin="0s" xlink:href="#_R_G_L_0_G_G_0_L_0_G_L_2_G" fill="freeze" attributeName="transform" from="-7.032 -10.656" to="-7.032 -10.656" type="translate" additive="sum" keyTimes="0;1" values="-7.032 -10.656;-7.032 -10.656" keySplines="0 0 1 1" calcMode="spline"/><animateTransform repeatCount="indefinite" dur="3.003003s" begin="0s" xlink:href="#_R_G_L_0_G_G_0_L_0_G_L_1_G" fill="freeze" attributeName="transform" from="1 1" to="1 1" type="scale" additive="sum" keyTimes="0;0.3888889;0.4222222;0.4666667;1" values="1 1;1 1;1 0.2;1 1;1 1" keySplines="0.333 0 0.667 1;0.333 0 0.667 1;0.333 0 0.667 1;0 0 0 0" calcMode="spline"/><animateTransform repeatCount="indefinite" dur="3.003003s" begin="0s" xlink:href="#_R_G_L_0_G_G_0_L_0_G_L_1_G" fill="freeze" attributeName="transform" from="-7.032 -10.656" to="-7.032 -10.656" type="translate" additive="sum" keyTimes="0;1" values="-7.032 -10.656;-7.032 -10.656" keySplines="0 0 1 1" calcMode="spline"/><animateMotion repeatCount="indefinite" dur="3.003003s" begin="0s" xlink:href="#_R_G_L_0_G_G_0_L_0_G_L_0_G" fill="freeze" keyTimes="0;0.3333333;0.3888889;0.4333333;0.4888889;0.5333333;1" path="M290.5 307.08 C290.5,307.08 290.5,307.08 290.5,307.08 C290.5,307.08 290.5,307.08 290.5,307.08 C290.5,307.08 290.5,310.42 290.5,310.42 C290.5,310.42 290.5,305.83 290.5,305.83 C290.5,305.83 290.5,307.08 290.5,307.08 C290.5,307.08 290.5,307.08 290.5,307.08 " keyPoints="0;0;0;0.36;0.86;1;1" keySplines="0.167 0.167 0.833 0.833;0.167 0.167 0.833 0.833;0.333 0 0.667 1;0.333 0 0.667 1;0.167 0.167 0.667 1;0 0 0 0" calcMode="spline"/><animateTransform repeatCount="indefinite" dur="3.003003s" begin="0s" xlink:href="#_R_G_L_0_G_G_0_L_0_G_L_0_G" fill="freeze" attributeName="transform" from="-58.477 -9.2" to="-58.477 -9.2" type="translate" additive="sum" keyTimes="0;1" values="-58.477 -9.2;-58.477 -9.2" keySplines="0 0 1 1" calcMode="spline"/><animate attributeType="XML" attributeName="opacity" dur="3s" from="0" to="1" xlink:href="#time_group"/></defs><g id="_R_G"><g id="_R_G_L_0_G" transform=" translate(224, 208) translate(-290, -309.5)"><g clip-path="url(#_R_G_L_0_C_0)"><g id="_R_G_L_0_G_G_0_L_0_G"><g id="_R_G_L_0_G_G_0_L_0_G_L_3_G" transform=" translate(290.5, 374.489) translate(-173.75, -231.738)"><path id="_R_G_L_0_G_G_0_L_0_G_L_3_G_D_0_P_0" fill="#ffd18d" fill-opacity="1" fill-rule="nonzero" d=" M230.78 351.41 C222.48,346.19 217.24,336.98 217.24,326.88 C217.24,326.88 217.24,309.61 217.24,309.61 C217.24,309.61 217.24,282.48 217.24,282.48 C217.24,282.48 130.26,282.48 130.26,282.48 C130.26,282.48 130.26,326.88 130.26,326.88 C130.26,335.94 126.03,344.25 119.17,349.65 C119.17,349.65 173.52,385.15 173.52,385.15 C173.52,385.15 230.78,351.41 230.78,351.41z "/><path id="_R_G_L_0_G_G_0_L_0_G_L_3_G_D_1_P_0" fill="#fbbd80" fill-opacity="1" fill-rule="nonzero" d=" M217.24 309.61 C217.24,309.61 217.24,282.48 217.24,282.48 C217.24,282.48 130.26,282.48 130.26,282.48 C130.26,282.48 130.26,326.88 130.26,326.88 C130.26,335.94 126.03,344.25 119.17,349.65 C119.17,349.65 137.93,361.9 137.93,361.9 C146.75,352.65 152,340.19 152,326.88 C152,325.91 152.48,325.31 152.87,324.98 C153.23,324.67 154,324.23 155.07,324.4 C176.32,327.96 197.6,325.38 217.24,317.4 C217.24,317.4 217.24,309.61 217.24,309.61 C217.24,309.61 217.24,309.61 217.24,309.61z "/><path id="_R_G_L_0_G_G_0_L_0_G_L_3_G_D_2_P_0" fill="#dfbdf0" fill-opacity="1" fill-rule="nonzero" d=" M311.57 380.92 C311.57,380.92 236.51,354.19 236.51,354.19 C234.47,353.47 232.6,352.46 230.83,351.34 C230.83,351.34 173.75,376.71 173.75,376.71 C173.75,376.71 119.34,349.5 119.34,349.5 C116.87,351.48 114.08,353.09 110.99,354.19 C110.99,354.19 35.94,380.92 35.94,380.92 C18.61,387.09 7.03,403.49 7.03,421.89 C7.03,421.89 28.78,456.44 28.78,456.44 C28.78,456.44 340.47,456.44 340.47,456.44 C340.47,456.44 340.47,421.89 340.47,421.89 C340.47,403.49 328.9,387.09 311.57,380.92z "/><path id="_R_G_L_0_G_G_0_L_0_G_L_3_G_D_3_P_0" fill="#cbb0f2" fill-opacity="1" fill-rule="nonzero" d=" M28.78 421.89 C28.78,412.71 34.58,404.47 43.22,401.4 C43.22,401.4 118.28,374.68 118.28,374.68 C125.88,371.97 132.85,367.36 138.44,361.33 C138.44,361.33 139.88,359.77 139.88,359.77 C139.88,359.77 119.33,349.5 119.33,349.5 C116.87,351.47 114.08,353.09 110.99,354.19 C110.99,354.19 35.93,380.92 35.93,380.92 C18.6,387.09 7.03,403.49 7.03,421.89 C7.03,421.89 7.03,456.44 7.03,456.44 C7.03,456.44 28.78,456.44 28.78,456.44 C28.78,456.44 28.78,421.89 28.78,421.89 C28.78,421.89 28.78,421.89 28.78,421.89z "/><path id="_R_G_L_0_G_G_0_L_0_G_L_3_G_D_4_P_0" fill="#ffe09c" fill-opacity="1" fill-rule="nonzero" d=" M173.75 303.18 C121.71,303.18 93.43,262.03 93.43,209.99 C93.43,209.99 93.43,65.02 93.43,65.02 C93.43,65.02 267.98,65.02 267.98,65.02 C267.98,65.02 267.98,209.99 267.98,209.99 C267.98,257.03 233.51,296.02 188.46,303.08 C188.46,303.08 178.75,303.18 173.75,303.18z "/><path id="_R_G_L_0_G_G_0_L_0_G_L_3_G_D_5_P_0" fill="#ffd18d" fill-opacity="1" fill-rule="nonzero" d=" M108.51 209.99 C108.51,209.99 108.51,159.25 108.51,159.25 C108.51,151.25 115,144.76 123.01,144.76 C123.01,144.76 267.98,144.76 267.98,144.76 C267.98,144.76 267.98,65.02 267.98,65.02 C267.98,65.02 79.52,65.02 79.52,65.02 C79.52,65.02 79.52,209.99 79.52,209.99 C79.52,262.03 121.71,304.22 173.75,304.22 C178.69,304.22 183.72,303.82 188.46,303.08 C143.32,296.09 108.51,257.09 108.51,209.99z "/><path id="_R_G_L_0_G_G_0_L_0_G_L_3_G_D_6_P_0" fill="#ff646f" fill-opacity="1" fill-rule="nonzero" d=" M195.5 7.03 C195.5,7.03 156.01,7.03 156.01,7.03 C83.95,7.03 34.39,69.65 34.39,141.71 C34.39,141.71 50.52,267.98 50.52,267.98 C50.52,267.98 50.52,277.72 50.52,277.72 C50.52,285.41 53.58,292.78 59.01,298.22 C59.01,298.22 76.98,316.19 76.98,316.19 C80.59,319.8 86.77,317.24 86.77,312.14 C86.77,312.14 86.77,144.75 86.77,144.75 C86.77,132.74 96.5,123.01 108.51,123.01 C108.51,123.01 181,123.01 181,123.01 C185,123.01 188.24,119.76 188.24,115.76 C188.24,115.76 188.24,72.27 188.24,72.27 C188.24,72.27 220.15,116.94 220.15,116.94 C222.87,120.75 227.27,123.01 231.95,123.01 C231.95,123.01 238.99,123.01 238.99,123.01 C251,123.01 260.73,132.75 260.73,144.76 C260.73,144.76 260.73,312.14 260.73,312.14 C260.73,317.24 266.9,319.8 270.51,316.19 C270.51,316.19 288.48,298.22 288.48,298.22 C293.92,292.78 296.98,285.41 296.98,277.72 C296.98,277.72 296.98,267.98 296.98,267.98 C296.98,267.98 311.47,253.45 311.47,253.45 C320.76,244.14 325.97,231.53 325.97,218.38 C325.97,218.38 325.97,137.51 325.97,137.51 C325.97,65.45 267.55,7.03 195.5,7.03z "/><path id="_R_G_L_0_G_G_0_L_0_G_L_3_G_D_7_P_0" fill="#fb4455" fill-opacity="1" fill-rule="nonzero" d=" M50.52 137.51 C50.52,65.45 108.94,7.03 181,7.03 C181,7.03 152,7.03 152,7.03 C79.94,7.03 21.53,65.45 21.53,137.51 C21.53,137.51 21.53,217.97 21.53,217.97 C21.53,231.43 26.88,244.33 36.39,253.85 C36.39,253.85 50.52,267.98 50.52,267.98 C50.52,267.98 50.52,137.51 50.52,137.51z "/><path id="_R_G_L_0_G_G_0_L_0_G_L_3_G_D_8_P_0" fill="#ff646f" fill-opacity="1" fill-rule="nonzero" d=" M218.78 349.13 C218.78,349.13 188.25,362.21 188.25,362.21 C188.25,362.21 173.75,376.71 173.75,376.71 C173.75,376.71 159.25,362.21 159.25,362.21 C159.25,362.21 128.72,349.13 128.72,349.13 C119.15,345.03 108.51,352.04 108.51,362.45 C108.51,362.45 108.51,390.97 108.51,390.97 C108.51,401.38 119.15,408.39 128.72,404.29 C128.72,404.29 159.25,391.21 159.25,391.21 C159.25,391.21 173.75,376.71 173.75,376.71 C173.75,376.71 188.25,391.21 188.25,391.21 C188.25,391.21 218.78,404.29 218.78,404.29 C228.34,408.39 238.99,401.38 238.99,390.97 C238.99,390.97 238.99,362.45 238.99,362.45 C238.99,352.04 228.35,345.03 218.78,349.13z "/><path id="_R_G_L_0_G_G_0_L_0_G_L_3_G_D_9_P_0" fill="#fb4455" fill-opacity="1" fill-rule="nonzero" d=" M159.25 362.21 C159.25,362.21 188.25,362.21 188.25,362.21 C188.25,362.21 188.25,391.21 188.25,391.21 C188.25,391.21 159.25,391.21 159.25,391.21 C159.25,391.21 159.25,362.21 159.25,362.21z "/><path id="_R_G_L_0_G_G_0_L_0_G_L_3_G_D_10_P_0" fill="#000000" fill-opacity="1" fill-rule="nonzero" d=" M313.71 374.57 C313.71,374.57 240.85,348.86 240.85,348.86 C239.53,347.27 237.98,345.86 236.2,344.69 C234.11,343.31 231.83,342.34 229.47,341.77 C225.95,337.72 224.02,332.59 224.02,327.2 C224.02,327.2 224.02,297.65 224.02,297.65 C235.57,291.03 245.76,282.15 253.95,271.43 C253.95,271.43 253.95,325.97 253.95,325.97 C253.95,328.71 255.6,331.19 258.14,332.24 C258.98,332.58 259.86,332.75 260.73,332.75 C262.5,332.75 264.23,332.06 265.53,330.77 C265.53,330.77 293.28,303.01 293.28,303.01 C300.04,296.26 303.76,287.27 303.76,277.72 C303.76,277.72 303.76,270.79 303.76,270.79 C303.76,270.79 315.9,258.64 315.9,258.64 C326.77,247.78 332.75,233.33 332.75,217.97 C332.75,217.97 332.75,137.5 332.75,137.5 C332.75,61.82 271.18,0.25 195.49,0.25 C195.49,0.25 152,0.25 152,0.25 C76.32,0.25 14.75,61.82 14.75,137.51 C14.75,137.51 14.75,217.97 14.75,217.97 C14.75,233.33 20.73,247.78 31.59,258.64 C31.59,258.64 43.74,270.79 43.74,270.79 C43.74,270.79 43.74,277.72 43.74,277.72 C43.74,287.27 47.46,296.26 54.22,303.02 C54.22,303.02 81.97,330.77 81.97,330.77 C83.27,332.06 85,332.75 86.77,332.75 C87.64,332.75 88.52,332.58 89.36,332.24 C91.9,331.19 93.55,328.71 93.55,325.97 C93.55,325.97 93.55,271.45 93.55,271.45 C101.74,282.16 111.93,291.04 123.48,297.65 C123.48,297.65 123.48,327.2 123.48,327.2 C123.48,332.56 121.54,337.73 118.02,341.77 C115.66,342.34 113.39,343.31 111.3,344.69 C109.52,345.86 107.97,347.27 106.65,348.85 C106.65,348.85 33.79,374.57 33.79,374.57 C13.73,381.65 0.25,400.7 0.25,421.98 C0.25,421.98 0.25,456.44 0.25,456.44 C0.25,460.19 3.29,463.23 7.03,463.23 C10.78,463.23 13.81,460.19 13.81,456.44 C13.81,456.44 13.81,421.98 13.81,421.98 C13.81,406.44 23.66,392.53 38.31,387.36 C38.31,387.36 101.73,364.97 101.73,364.97 C101.73,364.97 101.73,390.97 101.73,390.97 C101.73,398.14 105.31,404.78 111.3,408.73 C114.83,411.07 118.9,412.26 123,412.26 C125.84,412.26 128.69,411.68 131.39,410.53 C131.39,410.53 160.64,397.99 160.64,397.99 C160.64,397.99 166.97,397.99 166.97,397.99 C166.97,397.99 166.97,456.44 166.97,456.44 C166.97,460.19 170,463.23 173.75,463.23 C177.5,463.23 180.53,460.19 180.53,456.44 C180.53,456.44 180.53,397.99 180.53,397.99 C180.53,397.99 186.86,397.99 186.86,397.99 C186.86,397.99 216.11,410.53 216.11,410.53 C218.81,411.68 221.66,412.25 224.5,412.25 C228.6,412.25 232.67,411.07 236.2,408.73 C242.19,404.78 245.77,398.14 245.77,390.97 C245.77,390.97 245.77,364.97 245.77,364.97 C245.77,364.97 309.2,387.36 309.2,387.36 C323.84,392.53 333.69,406.44 333.69,421.97 C333.69,421.97 333.69,456.44 333.69,456.44 C333.69,460.19 336.72,463.23 340.47,463.23 C344.21,463.23 347.25,460.19 347.25,456.44 C347.25,456.44 347.25,421.98 347.25,421.98 C347.25,400.7 333.77,381.65 313.71,374.57z  M93.55 244.84 C93.55,244.84 93.55,144.76 93.55,144.76 C93.55,136.5 100.26,129.79 108.51,129.79 C108.51,129.79 188.25,129.79 188.25,129.79 C191.99,129.79 195.03,126.76 195.03,123.01 C195.03,123.01 195.03,93.43 195.03,93.43 C195.03,93.43 218.97,126.95 218.97,126.95 C220.24,128.73 222.3,129.79 224.49,129.79 C224.49,129.79 238.99,129.79 238.99,129.79 C247.24,129.79 253.95,136.51 253.95,144.76 C253.95,144.76 253.95,152 253.95,152 C253.95,155.75 256.99,158.79 260.73,158.79 C264.48,158.79 267.51,155.75 267.51,152 C267.51,152 267.51,144.76 267.51,144.76 C267.51,129.03 254.72,116.23 238.99,116.23 C238.99,116.23 227.98,116.23 227.98,116.23 C227.98,116.23 193.77,68.33 193.77,68.33 C192.05,65.93 188.98,64.91 186.18,65.81 C183.37,66.71 181.47,69.32 181.47,72.27 C181.47,72.27 181.47,116.23 181.47,116.23 C181.47,116.23 166.03,116.23 166.03,116.23 C166.03,116.23 166.03,94.01 166.03,94.01 C166.03,90.27 163,87.23 159.25,87.23 C155.51,87.23 152.47,90.27 152.47,94.01 C152.47,94.01 152.47,116.23 152.47,116.23 C152.47,116.23 108.51,116.23 108.51,116.23 C92.78,116.23 79.99,129.03 79.99,144.76 C79.99,144.76 79.99,309.6 79.99,309.6 C79.99,309.6 63.81,293.42 63.81,293.42 C59.62,289.23 57.31,283.65 57.31,277.72 C57.31,277.72 57.31,188.25 57.31,188.25 C57.31,184.5 54.27,181.46 50.52,181.46 C46.78,181.46 43.74,184.5 43.74,188.25 C43.74,188.25 43.74,251.61 43.74,251.61 C43.74,251.61 41.19,249.05 41.19,249.05 C32.88,240.75 28.31,229.71 28.31,217.97 C28.31,217.97 28.31,137.51 28.31,137.51 C28.31,69.3 83.8,13.81 152,13.81 C152,13.81 195.5,13.81 195.5,13.81 C263.7,13.81 319.19,69.3 319.19,137.51 C319.19,137.51 319.19,217.97 319.19,217.97 C319.19,229.71 314.62,240.75 306.31,249.05 C306.31,249.05 303.76,251.61 303.76,251.61 C303.76,251.61 303.76,188.25 303.76,188.25 C303.76,184.5 300.72,181.47 296.98,181.47 C293.23,181.47 290.19,184.5 290.19,188.25 C290.19,188.25 290.19,277.72 290.19,277.72 C290.19,283.65 287.88,289.23 283.69,293.42 C283.69,293.42 267.52,309.6 267.52,309.6 C267.52,309.6 267.52,181 267.52,181 C267.52,177.25 264.48,174.22 260.73,174.22 C256.99,174.22 253.95,177.25 253.95,181 C253.95,181 253.95,244.8 253.95,244.8 C240.05,276.82 208.72,297.44 173.74,297.44 C138.79,297.44 107.46,276.83 93.55,244.84z  M173.74 311 C186.58,311 198.98,308.6 210.46,304.13 C210.46,304.13 210.46,327.2 210.46,327.2 C210.46,332.99 211.84,338.59 214.43,343.61 C214.43,343.61 186.85,355.43 186.85,355.43 C186.85,355.43 160.64,355.43 160.64,355.43 C160.64,355.43 133.05,343.6 133.05,343.6 C135.64,338.57 137.04,332.95 137.04,327.2 C137.04,327.2 137.04,304.14 137.04,304.14 C148.51,308.6 160.92,311 173.74,311z    M166.03 369 C166.03,369 181.46,369 181.46,369 C181.46,369 181.46,384.43 181.46,384.43 C181.46,384.43 166.03,384.43 166.03,384.43 C166.03,384.43 166.03,369 166.03,369z  M126.05 398.06 C123.62,399.1 120.97,398.86 118.76,397.41 C116.56,395.95 115.29,393.61 115.29,390.97 C115.29,390.97 115.29,362.45 115.29,362.45 C115.29,359.81 116.56,357.46 118.76,356.01 C120.97,354.56 123.62,354.32 126.05,355.36 C126.05,355.36 152.47,366.68 152.47,366.68 C152.47,366.68 152.47,386.73 152.47,386.73 C152.47,386.73 126.05,398.06 126.05,398.06z  M232.2 390.97 C232.2,393.61 230.94,395.96 228.74,397.41 C226.53,398.86 223.88,399.1 221.45,398.06 C221.45,398.06 195.03,386.74 195.03,386.74 C195.03,386.74 195.03,366.69 195.03,366.69 C195.03,366.69 221.45,355.36 221.45,355.36 C223.88,354.32 226.53,354.56 228.74,356.01 C230.94,357.47 232.2,359.81 232.2,362.45 C232.2,362.45 232.2,390.97 232.2,390.97 C232.2,390.97 232.2,390.97 232.2,390.97z "/><path id="_R_G_L_0_G_G_0_L_0_G_L_3_G_D_11_P_0" fill="#000000" fill-opacity="1" fill-rule="nonzero" d=" M199.99 241.47 C197.35,238.81 193.06,238.78 190.39,241.41 C187.92,243.85 181.99,246.7 173.41,246.7 C164.84,246.7 158.91,243.85 156.43,241.41 C153.76,238.78 149.47,238.81 146.84,241.47 C144.21,244.14 144.24,248.43 146.9,251.06 C152.74,256.83 162.65,260.27 173.41,260.27 C184.17,260.27 194.08,256.82 199.92,251.06 C202.59,248.43 202.62,244.14 199.99,241.47z "/></g><g id="_R_G_L_0_G_G_0_L_0_G_L_2_G" transform=" translate(333.99, 335.248)"><path id="_R_G_L_0_G_G_0_L_0_G_L_2_G_D_0_P_0" fill="#000000" fill-opacity="1" fill-rule="nonzero" d=" M7.03 0.25 C3.29,0.25 0.25,3.29 0.25,7.03 C0.25,7.03 0.25,14.28 0.25,14.28 C0.25,18.03 3.29,21.06 7.03,21.06 C10.78,21.06 13.81,18.03 13.81,14.28 C13.81,14.28 13.81,7.03 13.81,7.03 C13.81,3.29 10.78,0.25 7.03,0.25z "/></g><g id="_R_G_L_0_G_G_0_L_0_G_L_1_G" transform=" translate(247.007, 335.248)"><path id="_R_G_L_0_G_G_0_L_0_G_L_1_G_D_0_P_0" fill="#000000" fill-opacity="1" fill-rule="nonzero" d=" M7.03 0.25 C3.29,0.25 0.25,3.29 0.25,7.03 C0.25,7.03 0.25,14.28 0.25,14.28 C0.25,18.03 3.29,21.06 7.03,21.06 C10.78,21.06 13.81,18.03 13.81,14.28 C13.81,14.28 13.81,7.03 13.81,7.03 C13.81,3.29 10.78,0.25 7.03,0.25z "/></g><g id="_R_G_L_0_G_G_0_L_0_G_L_0_G"><path id="_R_G_L_0_G_G_0_L_0_G_L_0_G_D_0_P_0" fill="#000000" fill-opacity="1" fill-rule="nonzero" d=" M20.59 1.16 C20.59,1.16 6.09,4.79 6.09,4.79 C2.46,5.69 0.25,9.38 1.16,13.01 C1.93,16.09 4.69,18.15 7.73,18.15 C8.27,18.15 8.83,18.08 9.38,17.95 C9.38,17.95 23.88,14.32 23.88,14.32 C27.51,13.41 29.72,9.73 28.81,6.1 C27.9,2.46 24.23,0.25 20.59,1.16z "/><path id="_R_G_L_0_G_G_0_L_0_G_L_0_G_D_1_P_0" fill="#000000" fill-opacity="1" fill-rule="nonzero" d=" M93.07 14.32 C93.07,14.32 107.57,17.95 107.57,17.95 C108.12,18.08 108.68,18.15 109.22,18.15 C112.26,18.15 115.02,16.09 115.79,13.01 C116.7,9.38 114.49,5.69 110.86,4.79 C110.86,4.79 96.36,1.16 96.36,1.16 C92.73,0.26 89.05,2.46 88.14,6.1 C87.23,9.73 89.44,13.41 93.07,14.32z "/></g></g></g></g></g><g id="time_group"/></svg>